<svg width="713" height="180" viewBox="0 0 713 180" fill="none" xmlns="http://www.w3.org/2000/svg">
<g clip-path="url(#clip0_100_1527)">
<path d="M7.28001 93.9496C7.28001 93.9496 6.31771 90.4259 8.32599 88.8976C9.33012 88.558 10.4179 88.4731 15.0621 90.8505C31.0446 99.1289 57.9054 109.7 80.624 100.233C103.384 90.7656 88.0714 123.412 88.0714 123.412C88.0714 123.412 83.2599 143.408 55.6879 137.422C32.6764 132.455 8.03311 109.148 7.28001 93.9496Z" fill="#030041"/>
<path d="M12.3417 0C12.3417 0 26.4415 12.1842 78.6567 55.9538C120.454 85.7562 92.0034 131.097 75.8535 136.658C76.1045 115.007 72.9666 113.606 32.3408 80.6618C-7.19718 48.6518 -6.10936 31.0336 12.3417 0Z" fill="#233587"/>
<path d="M8.40948 88.8555C-1.59007 91.8272 -3.0126 120.738 21.7562 142.517C46.776 164.55 46.776 164.55 56.65 179.833C65.3525 172.192 76.3562 144.555 52.8008 125.96C15.8568 100.275 8.40948 88.8555 8.40948 88.8555Z" fill="#0089DF"/>
</g>
<path d="M352.077 141.914C352.175 141.323 352.273 140.733 352.47 140.241C360.932 114.758 369.394 89.3729 377.757 63.8896C380.512 55.6247 383.267 47.4582 385.923 39.1934C386.218 38.3079 386.514 38.0127 387.497 38.0127C393.106 38.1111 398.812 38.0127 404.421 38.0127C407.274 38.0127 408.947 39.2918 409.832 41.9483C420.655 74.7126 431.577 107.477 442.4 140.241C442.498 140.635 442.695 141.127 442.892 141.717C442.301 141.717 441.809 141.717 441.416 141.717C436.103 141.717 430.888 141.717 425.575 141.717C425.083 141.717 424.591 141.815 424.099 141.815C424.001 141.815 423.902 141.815 423.804 141.815C423.509 141.225 423.213 140.733 423.017 140.044C420.557 132.567 417.999 124.99 415.539 117.513C415.244 116.627 414.85 116.332 413.866 116.332C402.846 116.332 391.827 116.332 380.708 116.332C379.626 116.332 379.233 116.726 378.937 117.71C376.478 125.187 374.018 132.567 371.656 140.044C371.263 141.225 370.771 141.717 369.394 141.717C364.179 141.619 358.964 141.717 353.749 141.717C353.257 141.717 352.765 141.815 352.273 141.815C352.273 141.914 352.175 141.914 352.077 141.914ZM410.521 101.18C406.192 88.2906 401.961 75.5981 397.73 62.8073C397.632 62.8073 397.533 62.8073 397.435 62.8073C393.106 75.5981 388.875 88.2906 384.546 101.18C393.204 101.18 401.764 101.18 410.521 101.18Z" fill="#030041"/>
<path d="M453.223 120.858C453.616 121.153 453.912 121.251 454.207 121.448C461.488 125.679 469.359 127.942 477.722 127.844C480.084 127.844 482.445 127.548 484.708 126.761C487.266 125.777 489.037 124.006 489.332 121.153C489.628 118.3 488.742 116.037 486.381 114.266C483.822 112.396 480.871 111.216 478.017 110.035C473.787 108.362 469.556 106.788 465.522 104.623C464.144 103.836 462.767 103.049 461.488 102.164C455.781 98.3263 453.124 92.718 452.928 85.929C452.731 80.1239 454.6 75.106 458.634 70.9736C461.586 67.9234 465.128 65.8572 469.064 64.4798C479.69 60.6425 490.119 61.3312 500.549 65.3653C501.336 65.6604 502.123 65.9556 502.812 66.3492C503.009 66.4476 503.304 66.8411 503.304 67.0379C503.304 71.8591 503.304 76.6803 503.304 81.5014C503.304 81.6982 503.304 81.895 503.206 82.0918C503.009 82.7805 502.714 82.8789 502.222 82.4853C499.565 80.7143 496.81 79.14 493.858 78.0577C489.332 76.4835 484.708 75.8931 479.985 76.2867C477.525 76.4835 475.164 77.369 473.098 78.7465C469.556 81.2062 469.457 87.0113 472.999 89.5695C474.77 90.8486 476.738 91.8325 478.706 92.718C482.445 94.3907 486.282 95.8665 490.119 97.4408C493.17 98.7199 496.121 100.294 498.876 102.262C503.796 105.804 506.452 110.724 506.846 116.725C507.338 123.022 505.567 128.532 501.238 133.058C498.089 136.305 494.154 138.47 489.824 139.847C485.593 141.126 481.363 141.815 476.935 142.012C473.688 142.209 470.54 142.012 467.293 141.52C462.865 140.831 458.536 139.749 454.502 137.781C453.518 137.289 453.124 136.699 453.124 135.617C453.223 131.091 453.124 126.565 453.124 122.137C453.026 121.842 453.223 121.35 453.223 120.858Z" fill="#030041"/>
<path d="M518.651 120.858C519.044 121.153 519.34 121.251 519.635 121.448C526.916 125.679 534.787 127.942 543.15 127.844C545.512 127.844 547.873 127.548 550.136 126.761C552.694 125.777 554.465 124.006 554.76 121.153C555.056 118.3 554.17 116.037 551.809 114.266C549.25 112.396 546.299 111.216 543.445 110.035C539.215 108.362 534.984 106.788 530.95 104.623C529.572 103.836 528.195 103.049 526.916 102.164C521.209 98.3263 518.552 92.718 518.356 85.929C518.159 80.1239 520.028 75.106 524.062 70.9736C527.014 67.9234 530.556 65.8572 534.492 64.4798C545.118 60.6425 555.547 61.3312 565.977 65.3653C566.764 65.6604 567.551 65.9556 568.24 66.3492C568.437 66.4476 568.732 66.8411 568.732 67.0379C568.732 71.8591 568.732 76.6803 568.732 81.5014C568.732 81.6982 568.732 81.895 568.633 82.0918C568.437 82.7805 568.142 82.8789 567.65 82.4853C564.993 80.7143 562.238 79.14 559.286 78.0577C554.76 76.4835 550.136 75.8931 545.413 76.2867C542.953 76.4835 540.592 77.369 538.526 78.7465C534.984 81.2062 534.885 87.0113 538.427 89.5695C540.198 90.8486 542.166 91.8325 544.134 92.718C547.873 94.3907 551.71 95.8665 555.547 97.4408C558.598 98.7199 561.549 100.294 564.304 102.262C569.224 105.804 571.88 110.724 572.274 116.725C572.766 123.022 570.995 128.532 566.666 133.058C563.517 136.305 559.581 138.47 555.252 139.847C551.021 141.126 546.791 141.815 542.363 142.012C539.116 142.209 535.968 142.012 532.721 141.52C528.293 140.831 523.964 139.749 519.93 137.781C518.946 137.289 518.552 136.699 518.552 135.617C518.651 131.091 518.552 126.565 518.552 122.137C518.454 121.842 518.552 121.35 518.651 120.858Z" fill="#030041"/>
<path d="M644.297 72.8427C641.345 69.5957 637.901 67.0376 633.867 65.3649C629.341 63.4955 624.52 62.5116 619.699 62.7084C614.091 62.61 608.581 63.6923 603.366 65.8569C598.938 67.8247 594.904 70.8748 591.854 74.5153C588.706 78.2542 586.443 82.5834 585.164 87.3062C583.688 92.3241 582.999 97.6372 582.999 102.852C582.901 108.165 583.688 113.38 585.262 118.398C586.738 123.121 589.198 127.351 592.543 130.893C595.987 134.534 600.414 137.387 605.137 139.158C611.532 141.323 618.321 142.11 624.914 141.323C637.409 139.749 642.821 134.927 646.56 129.91C653.152 121.054 651.282 119.578 651.282 119.578H636.917C635.343 119.578 631.899 126.269 621.371 126.269C614.091 126.269 611.237 125.187 607.695 121.743C604.35 118.791 602.48 113.97 602.087 107.575H651.086C652.463 107.575 652.758 106.689 652.857 105.312C653.152 99.8018 653.447 92.1273 650.692 83.8625C649.216 79.8284 647.15 76.0896 644.297 72.8427ZM602.185 93.5048C602.972 88.6836 604.645 84.8464 607.203 81.993C610.057 78.8445 613.894 77.3686 619.305 77.3686C621.667 77.2703 624.028 77.7622 626.193 78.8445C627.964 79.73 629.636 81.0091 630.915 82.6818C632.195 84.3544 633.178 86.3222 633.769 88.3885C634.261 90.0611 634.556 91.8321 634.753 93.6032H602.185V93.5048Z" fill="#030041"/>
<path d="M712.385 143.29C712.09 143.29 711.893 143.389 711.697 143.389C705.596 143.389 699.595 143.389 693.494 143.29C689.362 143.192 685.328 142.503 681.491 140.929C674.013 137.879 669.585 132.074 667.814 124.301C667.126 121.349 666.732 118.299 666.732 115.347C666.634 91.1428 666.732 66.9386 666.732 42.7344C666.732 42.5376 666.732 42.2424 666.732 41.9473C667.027 41.9473 667.322 41.9473 667.617 41.9473C671.652 41.9473 675.784 41.9473 679.818 41.9473C683.557 41.9473 685.721 44.2103 685.721 47.8507C685.721 53.8526 685.721 59.7561 685.721 65.7579C685.721 66.0531 685.721 66.4467 685.721 66.8402C686.115 66.8402 686.509 66.8402 686.804 66.8402C693.298 66.8402 699.791 66.8402 706.285 66.8402C710.221 66.8402 712.385 69.0048 712.385 72.9405C712.385 76.1874 712.385 79.5327 712.385 82.7796C712.385 83.0748 712.385 83.4683 712.385 83.8619C703.432 83.8619 694.577 83.8619 685.623 83.8619C685.623 84.2555 685.623 84.5506 685.623 84.9442C685.623 94.2914 685.623 103.639 685.623 112.986C685.623 114.56 685.82 116.233 686.115 117.807C687.296 123.317 690.838 126.268 696.446 126.367C699.693 126.465 703.038 126.367 706.285 126.367C710.024 126.367 712.287 128.63 712.287 132.369C712.287 135.714 712.287 139.059 712.287 142.405C712.385 142.601 712.385 142.897 712.385 143.29Z" fill="#030041"/>
<path d="M299.239 37.2253V78.9432H258.112V42.5385C258.112 39.5867 255.75 37.127 252.7 37.127H238.925V136.502C238.925 139.454 241.287 141.914 244.337 141.914H258.21V95.6697H299.337V136.502C299.337 139.454 301.699 141.914 304.749 141.914H318.622V42.5385C318.622 39.5867 316.261 37.127 313.211 37.127H299.239V37.2253Z" fill="#030041"/>
<path d="M225.939 62.0192V59.5594V58.8707C225.939 53.0656 225.939 47.2605 225.939 41.4555C225.939 38.7989 224.266 36.7327 221.708 36.044C221.216 35.9456 220.822 35.8472 220.331 35.8472C215.805 35.8472 211.377 35.8472 206.851 35.8472C206.753 35.8472 206.654 35.8472 206.457 35.8472V59.461V60.2482V66.8404V103.54C197.799 90.9462 189.239 78.3521 180.679 65.7581L176.153 59.0675C171.037 51.4914 165.92 44.0136 160.804 36.5359C160.509 36.044 160.115 35.8472 159.525 35.8472C154.408 35.8472 149.194 35.8472 144.077 35.8472H143.389V59.461V71.8583C143.389 93.0124 143.389 114.265 143.389 135.419C143.389 137.78 143.979 139.748 145.947 141.224C145.947 141.224 146.537 141.618 147.619 141.913H162.772V141.224V132.27V72.2519C162.969 72.5471 163.067 72.7438 163.165 72.9406C173.496 88.4864 183.827 104.131 194.158 119.676C197.996 125.481 201.833 131.287 205.67 136.993C206.654 138.469 207.638 140.043 209.114 141.126C209.114 141.126 209.803 141.618 210.787 141.814H225.939V141.126V131.188V62.0192Z" fill="#030041"/>
<defs>
<clipPath id="clip0_100_1527">
<rect width="100.372" height="179.833" fill="white"/>
</clipPath>
</defs>
</svg>
